<svg xmlns="http://www.w3.org/2000/svg" width="100" height="74" viewBox="0 0 100 74">
  <g id="Our_Vision" data-name="Our Vision" transform="translate(-467 -1782)">
    <path id="image_31_Traced_" data-name="image 31 (Traced)" d="M45.927.285a56.266,56.266,0,0,0-21.513,6.73A6.888,6.888,0,0,0,22.121,8.77c-.167.635.555,1.766,1.128,1.766A32.367,32.367,0,0,0,27.36,8.616C36.113,4.085,46.136,2.062,54.64,3.11a51.55,51.55,0,0,1,17.8,5.437c4.428,2.24,5.049,2.327,5.243.729.115-.947-.6-1.524-4.074-3.293A55.031,55.031,0,0,0,56.064.593C50.58-.118,49.554-.149,45.927.285Zm.736,6.1c-9.72.936-20.182,5.647-30.153,13.578C10.992,24.352,0,35.783,0,37.132c0,.467,4.242,5.336,7.791,8.941,15.1,15.341,30.932,22.871,45.34,21.568,9.9-.9,20.238-5.512,30.318-13.537C88.331,50.217,96.7,41.724,99.32,38l.68-.968-.678-.967c-2.556-3.646-11.045-12.259-15.872-16.1-8.085-6.44-17.6-11.273-25.294-12.844a70.335,70.335,0,0,0-8.776-.995Zm12.472,3.781c9.6,2.472,19,8.121,28.292,16.995,4.05,3.868,8.93,9.262,8.93,9.871,0,.642-4.985,6.116-9.289,10.2C77.254,56.542,67.009,62.361,56.837,64.4c-13.9,2.79-29.52-3.381-44.3-17.5C8.483,43.035,3.6,37.64,3.6,37.031s4.881-6,8.93-9.871c9.861-9.418,20.071-15.3,30.393-17.5a27.9,27.9,0,0,1,7.8-.5A28.774,28.774,0,0,1,59.135,10.165ZM44.84,16.2a22.3,22.3,0,0,0-15.9,15.774,24.518,24.518,0,0,0,.016,10.122A21.915,21.915,0,0,0,49.98,58.456a21.418,21.418,0,0,0,5-42.275A23.288,23.288,0,0,0,44.84,16.2Zm9.342,2.528A19.259,19.259,0,0,1,68.295,32.268a28.144,28.144,0,0,1,.107,9.171,19.463,19.463,0,0,1-4.7,8.425,17.709,17.709,0,0,1-7.622,4.952c-1.906.671-2.705.777-5.954.793a16.379,16.379,0,0,1-5.857-.638A19.013,19.013,0,0,1,31.63,41.665a28.629,28.629,0,0,1-.073-9.041,27.836,27.836,0,0,1,1.5-3.889,19.556,19.556,0,0,1,8.369-8.482A19.978,19.978,0,0,1,54.182,18.724Zm-7.3,6.567a12.509,12.509,0,0,0-8.929,9.649,7.7,7.7,0,0,0,0,4.183,12.214,12.214,0,0,0,23.72,1.332c.811-2.916.84-3.645.174-4.305-.764-.758-1.058-.76-1.812-.011a2.46,2.46,0,0,0-.6,1.861,10.264,10.264,0,0,1-2.891,5.939,8.7,8.7,0,0,1-6.565,2.45,8.32,8.32,0,0,1-6.985-2.941,8.793,8.793,0,0,1-2.473-6.416,8.793,8.793,0,0,1,2.473-6.416A9.341,9.341,0,0,1,49.023,27.6c1.828-.2,2.308-.507,2.308-1.457C51.33,24.823,49.761,24.523,46.883,25.291Zm-24.47,38.85c-.683.967-.3,1.588,1.7,2.73a103.008,103.008,0,0,0,9.83,4.315S44.948,74,49.98,74a56.564,56.564,0,0,0,23.968-6.1c3.3-1.7,4.269-2.605,3.772-3.527a1.8,1.8,0,0,0-.743-.744,24.589,24.589,0,0,0-5.008,2.085c-8.089,3.974-13.832,5.378-21.989,5.378a36.269,36.269,0,0,1-8.4-.664c-1.6-.323-3.093-.681-4.832-1.185a52.3,52.3,0,0,1-8.826-3.55,47.581,47.581,0,0,0-4.711-2.165A1.39,1.39,0,0,0,22.413,64.141Z" transform="translate(467 1782)" fill="#972724" fill-rule="evenodd"/>
    <path id="image_31_Traced_2" data-name="image 31 (Traced)" d="M45.927.285a56.266,56.266,0,0,0-21.513,6.73A6.888,6.888,0,0,0,22.121,8.77c-.167.635.555,1.766,1.128,1.766A32.367,32.367,0,0,0,27.36,8.616C36.113,4.085,46.136,2.062,54.64,3.11a51.55,51.55,0,0,1,17.8,5.437c4.428,2.24,5.049,2.327,5.243.729.115-.947-.6-1.524-4.074-3.293A55.031,55.031,0,0,0,56.064.593C50.58-.118,49.554-.149,45.927.285ZM44.84,16.2a22.3,22.3,0,0,0-15.9,15.774,24.518,24.518,0,0,0,.016,10.122A21.915,21.915,0,0,0,49.98,58.456a21.418,21.418,0,0,0,5-42.275A23.288,23.288,0,0,0,44.84,16.2Zm9.342,2.528A19.259,19.259,0,0,1,68.295,32.268a28.144,28.144,0,0,1,.107,9.171,19.463,19.463,0,0,1-4.7,8.425,17.709,17.709,0,0,1-7.622,4.952c-1.906.671-2.705.777-5.954.793a16.379,16.379,0,0,1-5.857-.638A19.013,19.013,0,0,1,31.63,41.665a28.629,28.629,0,0,1-.073-9.041,27.836,27.836,0,0,1,1.5-3.889,19.556,19.556,0,0,1,8.369-8.482A19.978,19.978,0,0,1,54.182,18.724Zm-7.3,6.567a12.509,12.509,0,0,0-8.929,9.649,7.7,7.7,0,0,0,0,4.183,12.214,12.214,0,0,0,23.72,1.332c.811-2.916.84-3.645.174-4.305-.764-.758-1.058-.76-1.812-.011a2.46,2.46,0,0,0-.6,1.861,10.264,10.264,0,0,1-2.891,5.939,8.7,8.7,0,0,1-6.565,2.45,8.32,8.32,0,0,1-6.985-2.941,8.793,8.793,0,0,1-2.473-6.416,8.793,8.793,0,0,1,2.473-6.416A9.341,9.341,0,0,1,49.023,27.6c1.828-.2,2.308-.507,2.308-1.457C51.33,24.823,49.761,24.523,46.883,25.291Zm-24.47,38.85c-.683.967-.3,1.588,1.7,2.73a103.008,103.008,0,0,0,9.83,4.315S44.948,74,49.98,74a56.564,56.564,0,0,0,23.968-6.1c3.3-1.7,4.269-2.605,3.772-3.527a1.8,1.8,0,0,0-.743-.744,24.589,24.589,0,0,0-5.008,2.085c-8.089,3.974-13.832,5.378-21.989,5.378a36.269,36.269,0,0,1-8.4-.664c-1.6-.323-3.093-.681-4.832-1.185a52.3,52.3,0,0,1-8.826-3.55,47.581,47.581,0,0,0-4.711-2.165A1.39,1.39,0,0,0,22.413,64.141Z" transform="translate(467 1782)" fill="#5b5b5b" fill-rule="evenodd"/>
  </g>
</svg>
