<svg xmlns="http://www.w3.org/2000/svg" width="80" height="80" viewBox="0 0 80 80">
  <g id="Our_Mission" data-name="Our Mission" transform="translate(-1142 -1782)">
    <path id="image_32_Traced_" data-name="image 32 (Traced)" d="M68.5.141c-.221.078-3.02,2.756-6.22,5.949-4.5,4.488-5.819,5.959-5.818,6.48a28.6,28.6,0,0,0,.819,3.74l.819,3.066L46.313,31.216c-8.468,8.5-11.788,12.007-11.788,12.436a1.914,1.914,0,0,0,1.665,1.671c.427,0,3.917-3.33,12.391-11.825l11.8-11.825,3.123.819a31.227,31.227,0,0,0,3.73.819c.436,0,2.33-1.729,6.692-6.109A73.768,73.768,0,0,0,80,10.692c-.016-1.043-.935-1.575-4.27-2.468L72.391,7.33l-.885-3.217C70.475.372,69.92-.362,68.5.141Zm.255,7.345a7.425,7.425,0,0,0,.963,2.579,10.7,10.7,0,0,0,2.345.774,19.305,19.305,0,0,1,2.225.629c.178.1-1.33,1.858-3.656,4.27l-3.959,4.1-2.585-.659a19.584,19.584,0,0,1-2.752-.826,18.691,18.691,0,0,1-.781-2.728l-.614-2.562,4.08-3.977c2.244-2.187,4.106-3.954,4.138-3.925S68.46,6.239,68.757,7.486Zm-37.1-.006A36.682,36.682,0,0,0,.837,35.793a35.909,35.909,0,0,0,9.19,32.825,35.866,35.866,0,0,0,46.286,5.237A43.143,43.143,0,0,0,66,64.382,36.737,36.737,0,0,0,71.318,34.45a26.992,26.992,0,0,0-2.856-7.238,1.613,1.613,0,0,0-2.493-.152c-.547.607-.522.723.786,3.689A29.805,29.805,0,0,1,69.216,41.7a31.779,31.779,0,0,1-9.932,25.233c-8.667,8.563-20.2,11.489-32.25,8.186a42.274,42.274,0,0,1-10.3-5.144A32.878,32.878,0,0,1,5.765,31.2,33.336,33.336,0,0,1,30.645,11.078a29.087,29.087,0,0,1,6.688-.316,27.309,27.309,0,0,1,12.5,2.8c1.685.755,2.684.7,3.153-.182.539-1.011.042-1.854-1.569-2.659a34.643,34.643,0,0,0-7.66-2.715A48,48,0,0,0,31.658,7.48Zm.386,12.87a23.807,23.807,0,0,0-18.809,18.22,36.116,36.116,0,0,0-.115,9.6A22.759,22.759,0,0,0,19.515,60.1a21.243,21.243,0,0,0,7.652,5.277c3.589,1.461,5.521,1.774,9.991,1.617a20.4,20.4,0,0,0,9-1.939A24.278,24.278,0,0,0,57.294,54.123c1.849-3.69,2.248-5.6,2.227-10.68-.017-4.1-.074-4.6-.767-6.711-1.475-4.5-2.407-5.623-4.042-4.875-1.031.471-1.076,1.407-.173,3.594a17.266,17.266,0,0,1,1.769,8.261,18.565,18.565,0,0,1-5.864,14.1,18.983,18.983,0,0,1-13.12,5.953A19.407,19.407,0,0,1,21.91,57.754,19.476,19.476,0,0,1,16.14,42.515a19.1,19.1,0,0,1,5.933-13.164,18.359,18.359,0,0,1,14.19-5.875,16.972,16.972,0,0,1,8.291,1.732c1.561.725,1.826.775,2.457.464.947-.466,1.273-1.058,1.059-1.915s-1.7-1.668-4.984-2.726a17.1,17.1,0,0,0-6.02-.823A37.3,37.3,0,0,0,32.044,20.351Zm1.812,12.734a10.786,10.786,0,1,0,7.193,20.184,12.193,12.193,0,0,0,4.8-4.829c.882-1.808,1.415-4.729,1-5.5a1.781,1.781,0,0,0-2.025-.947c-.853.215-1.2.853-1.2,2.2a8.582,8.582,0,0,1-2.711,5.189,6.81,6.81,0,0,1-4.779,1.564,7.028,7.028,0,0,1-7.2-7.216,6.855,6.855,0,0,1,1.487-4.658A7.894,7.894,0,0,1,35.72,36.2c1.305,0,1.92-.4,2.16-1.4.135-.562.021-.878-.508-1.409C36.611,32.628,35.93,32.568,33.856,33.085Z" transform="translate(1142 1782)" fill="#972724" fill-rule="evenodd"/>
    <path id="image_32_Traced_2" data-name="image 32 (Traced)" d="M68.5.141c-.221.078-3.02,2.756-6.22,5.949-4.5,4.488-5.819,5.959-5.818,6.48a28.6,28.6,0,0,0,.819,3.74l.819,3.066L46.313,31.216c-8.468,8.5-11.788,12.007-11.788,12.436a1.914,1.914,0,0,0,1.665,1.671c.427,0,3.917-3.33,12.391-11.825l11.8-11.825,3.123.819a31.227,31.227,0,0,0,3.73.819c.436,0,2.33-1.729,6.692-6.109A73.768,73.768,0,0,0,80,10.692c-.016-1.043-.935-1.575-4.27-2.468L72.391,7.33l-.885-3.217C70.475.372,69.92-.362,68.5.141Zm.255,7.345a7.425,7.425,0,0,0,.963,2.579,10.7,10.7,0,0,0,2.345.774,19.305,19.305,0,0,1,2.225.629c.178.1-1.33,1.858-3.656,4.27l-3.959,4.1-2.585-.659a19.584,19.584,0,0,1-2.752-.826,18.691,18.691,0,0,1-.781-2.728l-.614-2.562,4.08-3.977c2.244-2.187,4.106-3.954,4.138-3.925S68.46,6.239,68.757,7.486Z" transform="translate(1142 1782)" fill="#5b5b5b" fill-rule="evenodd"/>
  </g>
</svg>
