<svg xmlns="http://www.w3.org/2000/svg" width="109" height="109" viewBox="0 0 109 109">
  <g id="Delivery_Pincode" data-name="Delivery Pincode" transform="translate(-627 -3017)">
    <circle id="Ellipse" cx="54.5" cy="54.5" r="54.5" transform="translate(627 3017)" fill="#972724"/>
    <path id="d2daa4c8b0474fa40a2a56df5d782754" d="M66.225,2.5a9.91,9.91,0,0,0-10.035,9.741,10.478,10.478,0,0,0,1.518,4.771,38.694,38.694,0,0,0,3.123,4.782q2.107,2.8,4.478,5.394a1.254,1.254,0,0,0,1.831,0s2.24-2.393,4.483-5.394a38.842,38.842,0,0,0,3.118-4.782,10.478,10.478,0,0,0,1.518-4.771A9.91,9.91,0,0,0,66.225,2.5Zm0,2.509a7.363,7.363,0,0,1,7.526,7.232,9.072,9.072,0,0,1-1.219,3.59A36.957,36.957,0,0,1,69.607,20.3a47.5,47.5,0,0,1-3.382,4.077A47.29,47.29,0,0,1,62.839,20.3a36.849,36.849,0,0,1-2.915-4.465,9.058,9.058,0,0,1-1.224-3.59,7.363,7.363,0,0,1,7.526-7.232Zm0,3.151a3.763,3.763,0,1,0,3.763,3.763A3.781,3.781,0,0,0,66.225,8.16Zm0,2.509a1.262,1.262,0,1,1-1.254,1.254A1.236,1.236,0,0,1,66.225,10.668Zm-2.975,15.8-4.295,2.584,1.287,2.15,4.3-2.581-1.294-2.15ZM50.17,30.1a9.908,9.908,0,0,0-10.035,9.741,10.448,10.448,0,0,0,1.518,4.771,36.028,36.028,0,0,0,2.617,4.067,5.247,5.247,0,0,0-2.88,4.365,5.289,5.289,0,0,0,2.8,4.358,12.323,12.323,0,0,0,11.959,0,5.287,5.287,0,0,0,2.8-4.358,5.248,5.248,0,0,0-2.877-4.37,35.921,35.921,0,0,0,2.612-4.062,10.453,10.453,0,0,0,1.52-4.771A9.91,9.91,0,0,0,50.17,30.1Zm0,2.509A7.365,7.365,0,0,1,57.7,39.837a9.112,9.112,0,0,1-1.227,3.59,36.847,36.847,0,0,1-2.915,4.465,46.334,46.334,0,0,1-3.387,4.077,47.431,47.431,0,0,1-3.384-4.077,36.551,36.551,0,0,1-2.915-4.465,9.058,9.058,0,0,1-1.224-3.59A7.363,7.363,0,0,1,50.17,32.6Zm0,3.151a3.763,3.763,0,1,0,3.763,3.763A3.781,3.781,0,0,0,50.17,35.755Zm0,2.509a1.262,1.262,0,1,1-1.254,1.254A1.236,1.236,0,0,1,50.17,38.264ZM11.035,45.147A9.914,9.914,0,0,0,1,54.894,10.459,10.459,0,0,0,2.518,59.66a38.71,38.71,0,0,0,3.118,4.787q2.106,2.8,4.483,5.386a1.254,1.254,0,0,0,1.8.038l3.126-.9L14.449,66.9c.647-.778,1.259-1.49,1.982-2.456a39.212,39.212,0,0,0,3.121-4.787,10.459,10.459,0,0,0,1.518-4.766A9.914,9.914,0,0,0,11.035,45.147Zm0,2.509a7.367,7.367,0,0,1,7.526,7.238,9.065,9.065,0,0,1-1.224,3.58,36.777,36.777,0,0,1-2.915,4.47,46.383,46.383,0,0,1-3.387,4.072,47.631,47.631,0,0,1-3.382-4.072,37,37,0,0,1-2.925-4.47,9,9,0,0,1-1.219-3.58,7.367,7.367,0,0,1,7.526-7.238Zm43.49,3.018c1.259.69,1.917,1.575,1.917,2.366a2.79,2.79,0,0,1-1.608,2.22,9.826,9.826,0,0,1-9.325,0A2.794,2.794,0,0,1,43.9,53.04c0-.79.657-1.671,1.914-2.358,1.811,2.28,3.439,4.1,3.439,4.1a1.254,1.254,0,0,0,1.831,0s1.631-1.829,3.442-4.112Zm-43.49.133A3.763,3.763,0,1,0,14.8,54.57,3.781,3.781,0,0,0,11.035,50.807Zm28.147,1.866-5.017.025.013,2.509,5.017-.025-.01-2.509Zm-28.147.642A1.262,1.262,0,1,1,9.78,54.57,1.236,1.236,0,0,1,11.035,53.316Zm20.152.878-3.224,3.838,1.922,1.613L33.108,55.8l-1.922-1.606ZM26.35,59.959,23.126,63.8l1.927,1.611,3.219-3.841Zm-4.766,4.528-4.822,1.387.7,2.408L22.279,66.9l-.695-2.411Z" transform="translate(643 3035.5)" fill="#fff"/>
  </g>
</svg>
