<svg xmlns="http://www.w3.org/2000/svg" width="109" height="109" viewBox="0 0 109 109">
  <g id="Delivery_Package" data-name="Delivery Package" transform="translate(-965 -3017)">
    <circle id="Ellipse" cx="54.5" cy="54.5" r="54.5" transform="translate(965 3017)" fill="#972724"/>
    <g id="c11d3dc650c8f0af4403e02ec0377cc0" transform="translate(963.66 3024)">
      <path id="Path_7" data-name="Path 7" d="M78.458,279.031l-8.223,6.149a7.4,7.4,0,0,0-7.013-2.626l-8.368,1.464a9.073,9.073,0,0,1-4.024-.21l-.936-.266a15.144,15.144,0,0,0-13.872,2.918l-.366-2.095a1.077,1.077,0,0,0-1.247-.875l-9.177,1.605a1.077,1.077,0,0,0-.875,1.247l3.522,20.138a1.077,1.077,0,0,0,1.247.875l9.177-1.605a1.078,1.078,0,0,0,.875-1.247l-.184-1.052,2.161-1.755a4.25,4.25,0,0,1,3.037-.972l14.965,1.094.072,0h.091a15.583,15.583,0,0,0,9.157-3,1.084,1.084,0,0,0,.117-.1l17.825-17.453a1.077,1.077,0,0,0,.06-1.476A5.835,5.835,0,0,0,78.458,279.031ZM29.816,305.046l-3.152-18.015,7.054-1.234,3.152,18.015Zm37.326-7.935a13.394,13.394,0,0,1-7.822,2.517h-.044l-14.928-1.073a6.391,6.391,0,0,0-4.561,1.464l-1.22,1-2.107-12.044A13,13,0,0,1,49.3,285.613l.936.267a11.241,11.241,0,0,0,4.985.26l8.369-1.464a5.249,5.249,0,0,1,5.768,3.216l-12.585,2.2a1.077,1.077,0,1,0,.371,2.123L70.9,289.81a1.077,1.077,0,0,0,.875-1.247,7.386,7.386,0,0,0-.438-1.52l8.418-6.295.022-.017a3.684,3.684,0,0,1,4.3-.2Z" transform="translate(0 -227.388)" fill="#fff"/>
      <path id="Path_8" data-name="Path 8" d="M159.557,16.077A1.077,1.077,0,0,0,158.479,15h-33.4A1.077,1.077,0,0,0,124,16.077v33.4a1.077,1.077,0,0,0,1.077,1.077h33.4a1.077,1.077,0,0,0,1.077-1.077ZM137.6,17.155h8.35v5.6l-3.81-1.333a1.115,1.115,0,0,0-.726,0L137.6,22.759Zm-11.448,0h9.293v7.124A1.09,1.09,0,0,0,136.9,25.3l4.881-1.712,4.88,1.712a1.078,1.078,0,0,0,.357.061,1.1,1.1,0,0,0,.632-.2,1.086,1.086,0,0,0,.463-.879V17.155H157.4V48.267H126.155Z" transform="translate(-86.237 0)" fill="#fff"/>
      <path id="Path_9" data-name="Path 9" d="M189.746,138.155h10.471a1.077,1.077,0,0,0,0-2.155H189.746a1.077,1.077,0,1,0,0,2.155Z" transform="translate(-142.197 -104.703)" fill="#fff"/>
      <path id="Path_10" data-name="Path 10" d="M205.728,177H189.746a1.077,1.077,0,1,0,0,2.155h15.982a1.077,1.077,0,1,0,0-2.155Z" transform="translate(-142.197 -140.181)" fill="#fff"/>
    </g>
  </g>
</svg>
