<svg xmlns="http://www.w3.org/2000/svg" width="120" height="120" viewBox="0 0 120 120">
  <g id="Group_60" data-name="Group 60" transform="translate(-335 -2389)">
    <circle id="Path" cx="60" cy="60" r="60" transform="translate(335 2389)" fill="#fff"/>
    <path id="_0b88f481e7744636e03d22a113e57f74" data-name="0b88f481e7744636e03d22a113e57f74" d="M3.7,4A1.233,1.233,0,0,0,2.466,5.233V19.812q0,.012,0,.025A1.233,1.233,0,0,0,3.7,21.277H23.422a1.233,1.233,0,0,0,1.233-1.2l.057-1.859q0-.017,0-.035l.015-2.794,9.2,8.3-9.238,8.342.01-2.754q0-.017,0-.035L24.655,27.4a1.233,1.233,0,0,0-1.233-1.208H3.7a1.233,1.233,0,0,0-1.233,1.44V40.989H1.233A1.233,1.233,0,0,0,0,42.222v4.932a1.233,1.233,0,0,0,1.233,1.233H7.807a1.233,1.233,0,0,0,1.381-.809A9.879,9.879,0,0,1,12.2,43.293a1.233,1.233,0,0,0,.358-.3,9.78,9.78,0,0,1,11.977.094,1.233,1.233,0,0,0,.173.143,9.874,9.874,0,0,1,3.1,4.389,1.233,1.233,0,0,0,1.541.764l.049,0H48.5a1.233,1.233,0,0,0,1.381-.809,9.864,9.864,0,0,1,18.625.039,1.233,1.233,0,0,0,1.531.769h7.644a1.233,1.233,0,0,0,1.233-1.233V42.222a1.233,1.233,0,0,0-1.233-1.233H76.445V22.495a1.233,1.233,0,0,0-.543-1.021L63.139,6.89a1.233,1.233,0,0,0-.93-.424H44.387V5.233A1.233,1.233,0,0,0,43.154,4ZM4.932,6.466H41.921V40.989H25.868a12.258,12.258,0,0,0-14.742,0H4.932V36.058H8.877a1.233,1.233,0,0,0,0-2.466H4.932V28.655H22.213l.015.626L22.2,34.815a1.233,1.233,0,0,0,2.057.925L36.59,24.608a1.233,1.233,0,0,0,0-1.83L24.327,11.711a1.233,1.233,0,0,0-.905-.313v0a1.233,1.233,0,0,0-1.152,1.223l-.025,5.534-.017.651H4.932ZM44.387,8.932H61.649l10.794,12.33H44.387Zm0,14.8H73.979V28.66h-3.7a1.233,1.233,0,0,0-1.233,1.233v4.932a1.233,1.233,0,0,0,1.233,1.233h3.7v4.932H66.556a12.258,12.258,0,0,0-14.742,0H44.387Zm5.726,3.7a1.235,1.235,0,0,0,.126,2.466h5.539a1.233,1.233,0,0,0,0-2.466H50.239q-.062,0-.123,0Zm21.4,3.7h2.466v2.466H71.513ZM2.466,43.455h6.17a12.267,12.267,0,0,0-1.4,2.466H2.466Zm16.029,0a8.631,8.631,0,1,0,8.631,8.631A8.651,8.651,0,0,0,18.495,43.455Zm9.864,0H42.967a1.233,1.233,0,0,0,.36,0h6a12.267,12.267,0,0,0-1.4,2.466H29.759a12.339,12.339,0,0,0-1.4-2.466Zm30.825,0a8.631,8.631,0,1,0,8.631,8.631A8.651,8.651,0,0,0,59.183,43.455Zm9.864,0h7.4v2.466h-6A12.341,12.341,0,0,0,69.047,43.455ZM18.495,45.921a6.173,6.173,0,1,1-6.165,6.165A6.145,6.145,0,0,1,18.495,45.921Zm40.688,0a6.173,6.173,0,1,1-6.165,6.165A6.145,6.145,0,0,1,59.183,45.921ZM18.495,48.387a3.7,3.7,0,1,0,3.7,3.7A3.718,3.718,0,0,0,18.495,48.387Zm40.688,0a3.7,3.7,0,1,0,3.7,3.7A3.716,3.716,0,0,0,59.183,48.387ZM18.495,50.853a1.24,1.24,0,1,1-1.233,1.233A1.215,1.215,0,0,1,18.495,50.853Zm40.688,0a1.24,1.24,0,1,1-1.233,1.233A1.215,1.215,0,0,1,59.183,50.853Z" transform="translate(356 2417)" fill="#972724"/>
  </g>
</svg>
