<svg xmlns="http://www.w3.org/2000/svg" width="109" height="109" viewBox="0 0 109 109">
  <g id="Locations" transform="translate(-1304 -3017)">
    <circle id="Ellipse" cx="54.5" cy="54.5" r="54.5" transform="translate(1304 3017)" fill="#972724"/>
    <path id="Subtraction_2" data-name="Subtraction 2" d="M205.262-626.5l0,0c-7-10.631-15.554-24.526-19.662-37.722-.24-1-.6-2.864-.6-3.112v-3.86c1.838-12.989,11.441-18.8,20.142-18.8a20.492,20.492,0,0,1,20.265,20.667c0,4.585-2.466,11.662-7.329,21.033-4.037,7.779-8.89,15.528-11.79,20.159-.371.592-.714,1.14-1.024,1.637Zm-.06-58.378a14.448,14.448,0,0,0-14.43,14.433,14.448,14.448,0,0,0,14.43,14.433,14.449,14.449,0,0,0,14.433-14.433A14.449,14.449,0,0,0,205.2-684.878Z" transform="translate(1153 3730.001)" fill="#fff"/>
  </g>
</svg>
