<svg xmlns="http://www.w3.org/2000/svg" width="109" height="109" viewBox="0 0 109 109">
  <g id="Monthly_Running" data-name="Monthly Running" transform="translate(-289 -3017)">
    <circle id="Ellipse" cx="54.5" cy="54.5" r="54.5" transform="translate(289 3017)" fill="#972724"/>
    <path id="_1c1007464afefd2bbf3378b847fbc122" data-name="1c1007464afefd2bbf3378b847fbc122" d="M1.122,1026.36A1.122,1.122,0,0,0,0,1027.483V1063.4a1.122,1.122,0,0,0,1.122,1.122H11.4a7.676,7.676,0,0,0-.112,1.1,7.856,7.856,0,1,0,15.713,0,8.051,8.051,0,0,0-.114-1.1H46.016a1.12,1.12,0,0,0,.224-.027h2.2a7.758,7.758,0,0,0-.112,1.122,7.856,7.856,0,1,0,15.713,0,8.088,8.088,0,0,0-.114-1.122h6.781a1.122,1.122,0,0,0,1.122-1.122v-6.651c0-.026,0-.052,0-.078v-4.5a1.124,1.124,0,0,0,0-.112v-6.615a1.122,1.122,0,0,0-.276-.74,1.147,1.147,0,0,0-.142-.175l-11.629-13.288a1.121,1.121,0,0,0-.846-.382h-11.8v-3.342a1.122,1.122,0,0,0-1.122-1.122H1.122Zm1.122,2.245H44.893v24.664H2.245Zm4.536,2.218a1.122,1.122,0,0,0-1.1,1.136V1049.9a1.122,1.122,0,0,0,2.245,0v-17.944a1.122,1.122,0,0,0-1.14-1.135Zm6.734,0a1.122,1.122,0,0,0-1.1,1.136V1049.9a1.122,1.122,0,0,0,2.245,0v-17.944a1.122,1.122,0,0,0-1.14-1.135Zm6.734,0a1.122,1.122,0,0,0-1.1,1.136V1049.9a1.122,1.122,0,0,0,2.245,0v-17.944a1.122,1.122,0,0,0-1.14-1.135Zm6.734,0a1.122,1.122,0,0,0-1.1,1.136V1049.9a1.122,1.122,0,0,0,2.245,0v-17.944a1.122,1.122,0,0,0-1.14-1.135Zm6.734,0a1.122,1.122,0,0,0-1.1,1.136V1049.9a1.122,1.122,0,0,0,2.245,0v-17.944a1.122,1.122,0,0,0-1.14-1.135Zm6.734,0a1.122,1.122,0,0,0-1.1,1.136V1049.9a1.122,1.122,0,0,0,2.245,0v-17.944a1.122,1.122,0,0,0-1.14-1.135Zm6.687,2.245H58.429l9.823,11.221H47.138V1033.07Zm.067,13.466H69.584v4.485H66.278a1.122,1.122,0,0,0-1.122,1.122v4.5a1.122,1.122,0,0,0,1.122,1.122h3.306v4.485H63.25a7.808,7.808,0,0,0-14.135,0H47.2v-15.715Zm3.232,3.371a1.124,1.124,0,0,0,.114,2.245h2.281a1.122,1.122,0,0,0,0-2.245H50.552a1.076,1.076,0,0,0-.112,0Zm16.963,3.358h2.184v2.256H67.4Zm-65.156,2.256H44.893v6.759H26.231a7.816,7.816,0,0,0-14.171,0H2.245v-2.272H5.659a1.122,1.122,0,1,0,0-2.245H2.245v-2.245Zm16.9,4.489a5.619,5.619,0,1,1-5.612,5.612A5.6,5.6,0,0,1,19.147,1060.008Zm37.037,0a5.619,5.619,0,1,1-5.612,5.612A5.6,5.6,0,0,1,56.184,1060.008Zm-37.037,2.245a3.367,3.367,0,1,0,3.367,3.367A3.383,3.383,0,0,0,19.147,1062.252Zm37.037,0a3.367,3.367,0,1,0,3.367,3.367A3.383,3.383,0,0,0,56.184,1062.252ZM19.147,1064.5a1.129,1.129,0,1,1-1.122,1.123A1.106,1.106,0,0,1,19.147,1064.5Zm37.037,0a1.129,1.129,0,1,1-1.122,1.123A1.106,1.106,0,0,1,56.184,1064.5Z" transform="translate(308 2021.64)" fill="#fff" fill-rule="evenodd"/>
  </g>
</svg>
