<svg xmlns="http://www.w3.org/2000/svg" width="120" height="120" viewBox="0 0 120 120">
  <g id="ODC" transform="translate(-790 -2230)">
    <circle id="Path" cx="60" cy="60" r="60" transform="translate(790 2230)" fill="#fff"/>
    <path id="e7034ca48ce0d7c59356a4590dca7ca5" d="M51.33,33.082a4.4,4.4,0,1,0,4.4,4.4A4.4,4.4,0,0,0,51.33,33.082Zm0,5.866A1.467,1.467,0,1,1,52.8,37.481,1.467,1.467,0,0,1,51.33,38.948ZM70.073,24.81a1.467,1.467,0,0,0-1.437-.5L55.73,27.01V25.749a4.4,4.4,0,0,0-4.4-4.4H49.864V19.384a4.4,4.4,0,0,0-3.608-4.341l-8.125-1.467V5.217A1.467,1.467,0,0,0,36.664,3.75H24.932a1.467,1.467,0,0,0-1.467,1.467v5.72l-3.608-.587A4.4,4.4,0,0,0,14.666,14.6v6.746H13.2a4.4,4.4,0,0,0-4.4,4.4v9.474l-4.664.821a1.467,1.467,0,0,0-1.2,1.437V48.8a5.456,5.456,0,0,0-1.467-.323,1.467,1.467,0,1,0,0,2.933,2.464,2.464,0,0,1,1.467.44,5.368,5.368,0,0,0,2.933.792A5.368,5.368,0,0,0,8.8,51.854a2.493,2.493,0,0,1,1.467-.44,2.493,2.493,0,0,1,1.467.44,5.368,5.368,0,0,0,2.933.792,5.368,5.368,0,0,0,2.933-.792,2.787,2.787,0,0,1,2.933,0,5.661,5.661,0,0,0,5.866,0,2.786,2.786,0,0,1,2.933,0,5.69,5.69,0,0,0,5.866,0,2.757,2.757,0,0,1,2.933,0,5.72,5.72,0,0,0,5.866,0,2.786,2.786,0,0,1,2.933,0,5.72,5.72,0,0,0,5.866,0,2.493,2.493,0,0,1,1.5-.44,2.552,2.552,0,0,1,1.5.44,5.866,5.866,0,0,0,5.866,0,2.552,2.552,0,0,1,1.408-.44,1.467,1.467,0,0,0,0-2.933,5.368,5.368,0,0,0-2.933.763L70.4,26.335a1.467,1.467,0,0,0-.323-1.525ZM26.4,6.683h8.8v6.365l-8.8-1.584ZM17.6,14.6a1.437,1.437,0,0,1,.528-1.115,1.467,1.467,0,0,1,1.2-.205l26.4,4.81a1.467,1.467,0,0,1,1.2,1.437V21.5H17.6ZM11.733,25.749A1.467,1.467,0,0,1,13.2,24.282H51.33A1.467,1.467,0,0,1,52.8,25.749v1.819L11.733,34.724ZM57.02,49.214a5.28,5.28,0,0,0-2.786-.733,5.4,5.4,0,0,0-2.933.792,2.786,2.786,0,0,1-2.933,0,5.69,5.69,0,0,0-5.866,0,2.786,2.786,0,0,1-2.933,0,5.69,5.69,0,0,0-5.866,0,2.757,2.757,0,0,1-2.933,0,5.69,5.69,0,0,0-5.866,0,2.757,2.757,0,0,1-2.933,0,5.69,5.69,0,0,0-5.866,0,2.713,2.713,0,0,1-2.962,0,5.368,5.368,0,0,0-2.933-.792,5.368,5.368,0,0,0-2.933.792,2.493,2.493,0,0,1-1.467.44v-11L54.5,30.236l11.879-2.464Z" transform="translate(815 2262.25)" fill="#972724"/>
  </g>
</svg>
