<svg xmlns="http://www.w3.org/2000/svg" width="120" height="120" viewBox="0 0 120 120">
  <g id="Warehouse" transform="translate(-1244 -2389)">
    <circle id="Path" cx="60" cy="60" r="60" transform="translate(1244 2389)" fill="#fff"/>
    <g id="Layer_11" data-name="Layer 11" transform="translate(1266 2411.004)">
      <path id="Path_5" data-name="Path 5" d="M71.809,24.114a.844.844,0,0,0,0-.352,2.285,2.285,0,0,0-.141-.3l-.193-.281a1.635,1.635,0,0,0-.264-.229,1.23,1.23,0,0,0-.176-.141L39.389,5.232a1.758,1.758,0,0,0-1.758,0L5.985,22.813a1.231,1.231,0,0,0-.176.141,1.635,1.635,0,0,0-.264.229l-.193.281a2.286,2.286,0,0,0-.141.3.844.844,0,0,0,0,.352A1.072,1.072,0,0,0,5,24.343V34.891a1.758,1.758,0,0,0,1.758,1.758h3.516v33.4c-.123,2.883,5.5,1.424,7.033,1.758H59.5c1.477-.334,7.208,1.125,7.033-1.758v-33.4h3.516a1.758,1.758,0,0,0,1.758-1.758V24.343a1.073,1.073,0,0,0,0-.229ZM38.4,47.2a1.758,1.758,0,0,0,1.758-1.758V43.682h3.516V54.231H33.13V43.682h3.516V45.44A1.758,1.758,0,0,0,38.4,47.2ZM31.372,61.263a1.758,1.758,0,0,0,1.758-1.758V57.747h3.516V68.3H26.1V57.747h3.516v1.758A1.758,1.758,0,0,0,31.372,61.263ZM40.163,68.3V57.747h3.516v1.758a1.758,1.758,0,1,0,3.516,0V57.747h3.516V68.3Zm14.065,0V55.989a1.758,1.758,0,0,0-1.758-1.758H47.2V41.924a1.758,1.758,0,0,0-1.758-1.758H31.372a1.758,1.758,0,0,0-1.758,1.758V54.231H24.339a1.758,1.758,0,0,0-1.758,1.758V68.3H19.065V36.649H57.744V68.3Zm8.791,0H61.26v-33.4A1.758,1.758,0,0,0,59.5,33.133h-42.2a1.758,1.758,0,0,0-1.758,1.758V68.3H13.791V28.914L38.4,15.78,63.018,28.914Zm3.516-35.163V27.859a.879.879,0,0,0,0-.229,1.371,1.371,0,0,0,0-.369,1.23,1.23,0,0,0-.158-.3L66.2,26.7a1.6,1.6,0,0,0-.281-.229,1.531,1.531,0,0,0-.193-.158L39.354,12.247a1.758,1.758,0,0,0-1.653,0L11.329,26.312l-.193.141a3.516,3.516,0,0,0-.281.246l-.176.264a1.231,1.231,0,0,0-.158.3,1.371,1.371,0,0,0,0,.369.879.879,0,0,0-.246.229v5.274H8.516V25.38L38.4,8.765,68.293,25.38v7.753Z" transform="translate(0 0)" fill="#972724"/>
      <path id="Path_6" data-name="Path 6" d="M34.823,17H20.758a1.758,1.758,0,1,0,0,3.516H34.823a1.758,1.758,0,1,0,0-3.516Z" transform="translate(10.614 9.101)" fill="#972724"/>
    </g>
  </g>
</svg>
